<svg xmlns="http://www.w3.org/2000/svg" viewBox="0 0 24 24" fill="none" stroke="#4f7cff" stroke-width="2.4" stroke-linecap="round" stroke-linejoin="round">
  <circle cx="12" cy="12" r="3"/>
  <path d="M19.4 15a1.8 1.8 0 0 0 .4 2l.1.1a2.2 2.2 0 0 1-3.1 3.1l-.1-.1a1.8 1.8 0 0 0-2-.4 1.8 1.8 0 0 0-1 1.6V21a2.2 2.2 0 0 1-4.4 0v-.2a1.8 1.8 0 0 0-1-1.6 1.8 1.8 0 0 0-2 .4l-.1.1a2.2 2.2 0 0 1-3.1-3.1l.1-.1a1.8 1.8 0 0 0 .4-2 1.8 1.8 0 0 0-1.6-1H3a2.2 2.2 0 0 1 0-4.4h.2a1.8 1.8 0 0 0 1.6-1 1.8 1.8 0 0 0-.4-2l-.1-.1a2.2 2.2 0 0 1 3.1-3.1l.1.1a1.8 1.8 0 0 0 2 .4 1.8 1.8 0 0 0 1-1.6V3a2.2 2.2 0 0 1 4.4 0v.2a1.8 1.8 0 0 0 1 1.6 1.8 1.8 0 0 0 2-.4l.1-.1a2.2 2.2 0 0 1 3.1 3.1l-.1.1a1.8 1.8 0 0 0-.4 2 1.8 1.8 0 0 0 1.6 1h.2a2.2 2.2 0 0 1 0 4.4h-.2a1.8 1.8 0 0 0-1.6 1Z"/>
</svg>
